<svg xmlns="http://www.w3.org/2000/svg" xmlns:xlink="http://www.w3.org/1999/xlink" viewBox="0 0 1600 900"><defs><linearGradient id="b" x2="1" gradientTransform="matrix(1600 0 0 -1600 0 450)" gradientUnits="userSpaceOnUse"><stop offset="0" stop-color="#a1e5e2"/><stop offset=".3" stop-color="#a1e5e2"/><stop offset="1" stop-color="#a1c6e5"/></linearGradient><linearGradient id="a" x2="1" gradientTransform="matrix(1600 0 0 -1600 0 453)" gradientUnits="userSpaceOnUse"><stop offset="0" stop-color="#bdedeb"/><stop offset=".3" stop-color="#bdedeb"/><stop offset="1" stop-color="#bdd7ed"/></linearGradient><linearGradient id="c" x2="1" gradientTransform="matrix(1600 0 0 -1600 0 389.02)" gradientUnits="userSpaceOnUse"><stop offset="0" stop-color="#f1fbfb"/><stop offset=".3" stop-color="#f1fbfb"/><stop offset="1" stop-color="#f1f7fb"/></linearGradient><linearGradient id="d" gradientTransform="matrix(1600 0 0 -1600 0 450.5)" xlink:href="#a"/><linearGradient id="e" x2="1" gradientTransform="matrix(1600 0 0 -1600 0 614.78)" gradientUnits="userSpaceOnUse"><stop offset="0" stop-color="#fff"/><stop offset=".3" stop-color="#fff"/><stop offset="1" stop-color="#fff"/></linearGradient></defs><title>1</title><path fill="url(#b)" d="M153.75 739.6v28.2l32 5.8v-28.2l-32-5.8m1267.82-4.4v28.2l32 5.8V741l-32-5.8M855.8 647.26h-1.3a18.15 18.15 0 0 0-6.49 1.55 5.43 5.43 0 0 0-2.12 8 10.26 10.26 0 0 0 5.23 3.39 21.06 21.06 0 0 0 6.5 1 14.41 14.41 0 0 0 7.9-2c3.53-2.26 4.8-5.37 5.51-9.18a47.37 47.37 0 0 0-15.23-2.85m-259.25-2c-4.3 0-7.86 1.06-8.78 4.09-1.28 4 1 6.07 4.51 7.49a19.08 19.08 0 0 0 6.59 1.13 16.36 16.36 0 0 0 7-1.42c3.39-1.69 4.8-4.94 5.51-8.47a48.23 48.23 0 0 0-14.8-2.82m-403-22.11c-17.8 0-30.4 12.4-30.4 30 0 19.6 16 34.6 37.2 34.6 18.4 0 32-12.6 32-29.6 0-18.8-18-35-38.8-35m1267.82-4.4c-17.8 0-30.4 12.4-30.4 30 0 19.6 16 34.6 37.2 34.6 18.4 0 32-12.6 32-29.6 0-18.8-18-35-38.8-35M189.15 416.4c-7.4.8-11 2-15 4.4a26.75 26.75 0 0 0-12.4 22.8 30 30 0 0 0 11 23.2c4.6 3.6 8.4 5.4 16.4 7.4v-57.8m1269.62-106c-21 0-36.39 14-36.39 33.2 0 22 17.59 39.2 40.19 39.2 22 0 37.6-14.8 37.6-35.2 0-20.8-18.4-37.2-41.4-37.2m-1.8-92.8c-7.4.8-11 2-15 4.4a26.75 26.75 0 0 0-12.4 22.8 30 30 0 0 0 11 23.2c4.6 3.6 8.4 5.4 16.4 7.4v-57.8m-1267.82-4.4c-7.4.8-11 2-15 4.4a26.75 26.75 0 0 0-12.4 22.8 30 30 0 0 0 11 23.2c4.6 3.6 8.4 5.4 16.4 7.4v-57.8m-43.4 516.6v-23.2l7.8.8V731l32.4 6v-23l7.8.8v23.6l44.6 8.2-1.2 8.2-43.4-8v28.4l44.6 8.2-1.2 8.2-43.4-8v23.8l-7.8-1v-24.2l-32.4-6V800l-7.8-1v-24.4l-42-7.6 1.2-8.2 40.8 7.4v-28l-42-7.8 1.2-8.2 40.8 7.6m1267.82-4.4v-23.2l7.81.8v23.6l32.39 6v-23l7.8.8V734l44.6 8.2-1.2 8.2-43.4-8v28.4l44.6 8.2-1.2 8.2-43.4-8V803l-7.8-1v-24.2l-32.39-6v23.8l-7.81-1v-24.4l-42-7.6 1.2-8.2 40.79 7.4v-28l-42-7.8 1.2-8.2 40.79 7.6M201 696c-25.8 0-45.2-18-45.2-42 0-14.2 4.8-22.8 18.2-32.4l-16.2-2v-7.8l80 9.8v7.8l-14.2-1.6c12.2 10.8 16.2 18.6 16.2 31 0 21.8-16.2 37.2-38.8 37.2m1267.82-4.4c-25.8 0-45.2-18-45.2-42 0-14.2 4.8-22.8 18.2-32.4l-16.2-2v-7.8l80 9.8v7.8l-14.2-1.6c12.2 10.8 16.2 18.6 16.2 31 0 21.8-16.2 37.2-38.8 37.2m-718.58-84.2a4.13 4.13 0 0 1-3.62-2.19 77 77 0 0 0-9.32-12c-2-2.12-1.69-4.37-.14-5.93a4.17 4.17 0 0 1 3-1.33c3 0 6.13 3.75 8.9 7.26 4.38 5.51 7.91 10.45 3.53 13.56a4.71 4.71 0 0 1-2.31.64m11.87-8.58a4.13 4.13 0 0 1-3.63-2.37 49.66 49.66 0 0 0-9-11.3c-2.12-2-2-4.23-.57-5.93a4.37 4.37 0 0 1 3.23-1.55c3.2 0 6.62 3.79 9.34 7.34 4.09 5.09 7.34 10.45 2.68 13.28a4.26 4.26 0 0 1-2 .53m-212 64.32c-4.26 0-6.55-3.89-7.21-7.52-6.07-32.91-1.27-63.41 1.13-75.27.76-3.78 1.74-8.69 6.07-8.69a7.28 7.28 0 0 1 1.7.22c2.54.57 4 3 3.25 6.07-.15.43-9.32 36.15-2.26 74.56 4.94.42 6.07 7.34 1.41 9.6a9.64 9.64 0 0 1-4.09 1m55.34-75.32c2.34 0 4.66-.07 6.78-.26.14-11.3.14-6.64-.28-17.94-.07-3.41 2.61-5.06 5.29-5.06s5.3 1.62 5.3 4.78c0 7.48-.28 17.37-.28 17.37 2.12-.28 8.9-1.7 11.3-2.12a8.6 8.6 0 0 1 1.63-.17c2.66 0 4.51 1.47 4.86 3.84 1.13 6.21-5.51 6.78-9.6 7.34l-8.19 1.13c-.14 22.17.42 35.16-.28 44.77A90.14 90.14 0 0 1 636.2 649c3.39 2.12 9.46 6.35 4.52 11.3a4.66 4.66 0 0 1-3.44 1.5 6.37 6.37 0 0 1-3.76-1.36 124.74 124.74 0 0 0-12.85-8.76c-1.56 5.93-4.95 11.58-10.74 14.26a26.09 26.09 0 0 1-10.81 2.26 28 28 0 0 1-10.37-2c-9.74-3.82-12.7-12.29-10.3-19.21 2.69-8.17 10.65-10.86 19.21-10.86a55 55 0 0 1 14.39 2.11c.28-6.36.43-16.81.14-40.67-2.74.24-5.64.33-8.52.33-3.93 0-7.82-.17-11.25-.33-4.94-.28-11.29-.14-10.59-6.64a4.82 4.82 0 0 1 5.06-4.1h.31c2.07.11 10.28 1 18.21 1m382.41 36.94c-5.66 0-6.21-5.3-6.09-9.1a391.55 391.55 0 0 1 2.83-42.37c.53-4 .81-9.24 5.69-9.24a6.32 6.32 0 0 1 .94.07c2.69.42 4.38 2.54 4 5.64-2.12 14.41-3.11 24.57-3.39 44.48 5.5.43 5.93 8.9.42 9.89l-2.26.42a11.74 11.74 0 0 1-2.1.21m15.53 46.54c-1.77 0-3.35-.82-4.53-3.12s-.57-4.94 2.68-6.63c18.08-9.46 29-23.59 30.92-48.58 1.28-17.22.43-26.12-4.09-42.36-.85-3.11.56-5.65 3.25-6.35a7.34 7.34 0 0 1 1.77-.24c4.67 0 5.66 5.55 6.42 8.71 3.53 14.12 4.09 24.43 2.68 41.51-2 22.31-11.86 42.79-31.91 54.37-2.38 1.34-4.93 2.69-7.19 2.69m-267.1-1.36a38.7 38.7 0 0 1-4-.2c-15.25-1.56-26.55-11.3-28.38-29.52-.57-6.35-.57-12.14-.43-26.26V569.2c0-3.6 2.9-5.4 5.78-5.4s5.73 1.8 5.66 5.4c-.56 29.09-.42 18.21-.56 44.76 0 13.13-.29 19.35.28 25.13 1.13 12.71 7.91 18.79 18.64 19.63.81.07 1.62.11 2.45.11 9.2 0 19.55-4.09 25.51-7.59a6.33 6.33 0 0 1 3.13-.9 5 5 0 0 1 4.49 2.88c3.25 5.78-3.25 8.89-7.2 10.73-6.07 2.72-15.72 6-25.34 6m118.81-94.5c5.59 0 11.56-.11 16.81-.45v-11.87c0-3.25 2.62-4.88 5.23-4.88s5.22 1.63 5.22 4.88c0 4.23-.14 11.29-.14 11.29h4.24c2-.14 4-.56 17.65-2.26a6.44 6.44 0 0 1 .75 0 4.75 4.75 0 0 1 4.75 4.15c.57 5.65-5.08 5.93-9 6.35-4.8.57-12.29 1.27-18.36 1.7 0 3.1 0 6.92-.14 10.87 0 3.39.14 6.78.14 10.17a95.92 95.92 0 0 0 9-3.67 5.82 5.82 0 0 1 2.42-.56 4.5 4.5 0 0 1 4.21 2.81c2.26 5.37-3.1 7.49-6.77 9-3.25 1.27-6.36 2.26-8.9 3.11 0 11.58.14 20.76-.28 27.82 6.78 3.1 12.14 5.64 16.94 8.89 3.39 2.26 9.32 6.78 4.95 11.58a4.23 4.23 0 0 1-3.3 1.5 7.06 7.06 0 0 1-3.91-1.36 105.51 105.51 0 0 0-16.09-10.59c-1.7 6.64-4.66 11-9.46 14a25.19 25.19 0 0 1-13.09 3.38 31.93 31.93 0 0 1-9.81-1.57c-3.67-1.27-7.77-3.25-10.31-7.06-4.52-6.64-2.26-14.55 1-18.5 3.81-4.38 9.6-6.07 15.25-6.22H856a52.49 52.49 0 0 1 16 2.69c.29-6.5.15-15.82.15-22.74a52.27 52.27 0 0 1-6.91.46 42.12 42.12 0 0 1-18.37-3.84c-4.24-2-7.34-5.37-4.52-9.61a4.46 4.46 0 0 1 3.82-1.88 6.59 6.59 0 0 1 3.66 1.18c.36.35 5.56 3.9 15.53 3.9a47 47 0 0 0 6.79-.51c.14-14.27.14-10.31-.15-22.74-6.35.32-14.84.48-23 .48-2.72 0-5.4 0-7.94-.05-4-.15-9.46.14-9.32-5.79a4.64 4.64 0 0 1 4.94-4.38c3 .08 10.27.31 18.35.31M112.15 559.6l-7.8-4.8V532l133.4 16.4v8.6l-125.6-15.6v18.2M1380 555.2l-7.81-4.8v-22.8l133.4 16.4v8.6L1380 537v18.2m-1178-72c-27.6 0-47.6-16.6-47.6-39.6 0-14.6 8-26.4 21.4-31.8 5.2-2 10.4-2.8 20.6-3.2v66.8h5.6c18.2 0 31-12.4 31-30.2 0-10.4-3.6-17.2-13.2-25.2l3.8-5.4c12.4 9.6 16.8 17.8 16.8 31.2 0 22.4-15.6 37.4-38.4 37.4m1266.82-4.4c-26 0-45.8-18.4-45.8-42.6 0-11.4 3.2-19.4 11.4-28.6l8.6 1c-9.6 10-12.6 16.6-12.6 27.4 0 20 16.2 34.6 38.6 34.6 19.4 0 31.8-12.4 31.8-31.8 0-9.4-2.6-15.4-10.6-24.4l10 1.2c5.8 7.6 8 14.4 8 24 0 23.2-16 39.2-39.4 39.2m-49-114.8c-4-9.4-5.39-15-5.39-22.4 0-23.2 18-39.8 42.79-39.8 29.2 0 51 19.8 51 46.4 0 25.2-18.4 43.2-44.2 43.2-17 0-29-5.4-50.59-23L1368 331.2l5-6.2 46.79 39m-1258.44 3.4l-57-21.2v-49.4l7.8 1v42.8L150 354.8a48.77 48.77 0 0 1-1.6-12.8c0-23.8 17.4-40.4 42.4-40.4 28 0 49.6 21.6 49.6 49.6 0 22-12 36-33.6 39.2l-2.8-7.6c8-1.6 11.8-2.8 15.8-5.2 7.6-4.8 12.6-15.2 12.6-26.6 0-23-17.8-40.6-41-40.6-21.4 0-35.2 13.4-35.2 34.2 0 7.4 1.4 13 5.2 22.8m788-104.52L803.65 515.17l-27.42-47.49 118.25-204.8h54.83m520.46 21.52c-27.6 0-47.6-16.6-47.6-39.6 0-14.6 8-26.4 21.4-31.8 5.2-2 10.4-2.8 20.6-3.2v66.8h5.6c18.2 0 31-12.4 31-30.2 0-10.4-3.6-17.2-13.2-25.2l3.8-5.4c12.4 9.6 16.8 17.8 16.8 31.2 0 22.4-15.6 37.4-38.4 37.4M202 280c-27.6 0-47.6-16.6-47.6-39.6 0-14.6 8-26.4 21.4-31.8 5.2-2 10.4-2.8 20.6-3.2v66.8h5.6c18.2 0 31-12.4 31-30.2 0-10.4-3.6-17.2-13.2-25.2l3.8-5.4c12.4 9.6 16.8 17.8 16.8 31.2 0 22.4-15.6 37.4-38.4 37.4m-56.4-104.2c-9.8-.8-15.8-2.4-22.8-6a39 39 0 0 1-21-34.6c0-21 15.6-36.6 36.6-36.6 15.8 0 26.6 6.4 49.4 28.6l42.2 41.6v-65l7.8.8v82.6l-59.2-58c-17.2-16.8-26.4-22-39.4-22-17.2 0-29.4 11.8-29.4 28.4 0 18.2 13 29.8 35.8 32.4v7.8m1283.62-7.2l-57-21.2V98l7.81 1v42.8l37.79 14.2a48.77 48.77 0 0 1-1.6-12.8c0-23.8 17.4-40.4 42.4-40.4 28 0 49.6 21.6 49.6 49.6 0 22-12 36-33.6 39.2l-2.8-7.6c8-1.6 11.8-2.8 15.8-5.2 7.6-4.8 12.6-15.2 12.6-26.6 0-23-17.8-40.6-41-40.6-21.4 0-35.2 13.4-35.2 34.2 0 7.4 1.4 13 5.2 22.8M1600 0H0v900h1600V0"/><path fill="url(#a)" d="M185.75 773.6l-32-5.8v-28.2l32 5.8v28.2m-40-67v23.2L105 722.2l-1.2 8.2 42 7.8v28l-40.8-7.4-1.2 8.2 42 7.6V799l7.8 1v-23.8l32.4 6v24.2l7.8 1v-23.8l43.4 8 1.2-8.2-44.6-8.2v-28.4l43.4 8 1.2-8.2-44.6-8.2v-23.6l-7.8-.8v23l-32.4-6v-23.6l-7.8-.8m54.6-18.8c-21.2 0-37.2-15-37.2-34.6 0-17.6 12.6-30 30.4-30 20.8 0 38.8 16.2 38.8 35 0 17-13.6 29.6-32 29.6m-42.6-76v7.8l16.2 2c-13.4 9.6-18.2 18.2-18.2 32.4 0 24 19.4 42 45.2 42 22.6 0 38.8-15.4 38.8-37.2 0-12.4-4-20.2-16.2-31l14.2 1.6v-7.8l-80-9.8M104.35 532v22.8l7.8 4.8v-18.2l125.6 15.6v-8.6L104.35 532m84.8-57.8c-8-2-11.8-3.8-16.4-7.4a30 30 0 0 1-11-23.2 26.75 26.75 0 0 1 12.4-22.8c4-2.4 7.6-3.6 15-4.4v57.8m7.2-65.6c-10.2.4-15.4 1.2-20.6 3.2-13.4 5.4-21.4 17.2-21.4 31.8 0 23 20 39.6 47.6 39.6 22.8 0 38.4-15 38.4-37.4 0-13.4-4.4-21.6-16.8-31.2l-3.8 5.4c9.6 8 13.2 14.8 13.2 25.2 0 17.8-12.8 30.2-31 30.2h-5.6v-66.8m-92-111.8v49.4l57 21.2c-3.8-9.8-5.2-15.4-5.2-22.8 0-20.8 13.8-34.2 35.2-34.2 23.2 0 41 17.6 41 40.6 0 11.4-5 21.8-12.6 26.6-4 2.4-7.8 3.6-15.8 5.2l2.8 7.6c21.6-3.2 33.6-17.2 33.6-39.2 0-28-21.6-49.6-49.6-49.6-25 0-42.4 16.6-42.4 40.4a48.77 48.77 0 0 0 1.6 12.8l-37.8-14.2v-42.8l-7.8-1m84.8-25.8c-8-2-11.8-3.8-16.4-7.4a30 30 0 0 1-11-23.2 26.75 26.75 0 0 1 12.4-22.8c4-2.4 7.6-3.6 15-4.4V271m7.2-65.6c-10.2.4-15.4 1.2-20.6 3.2-13.4 5.4-21.4 17.2-21.4 31.8 0 23 20 39.6 47.6 39.6 22.8 0 38.4-15 38.4-37.4 0-13.4-4.4-21.6-16.8-31.2l-3.8 5.4c9.6 8 13.2 14.8 13.2 25.2 0 17.8-12.8 30.2-31 30.2h-5.6v-66.8m-58-106.8c-21 0-36.6 15.6-36.6 36.6a39 39 0 0 0 21 34.6c7 3.6 13 5.2 22.8 6V168c-22.8-2.6-35.8-14.2-35.8-32.4 0-16.6 12.2-28.4 29.4-28.4 13 0 22.2 5.2 39.4 22l59.2 58v-82.6l-7.8-.8v65l-42.2-41.6c-22.8-22.2-33.6-28.6-49.4-28.6"/><path fill="#fff" d="M1554 46v808H46V46h1508m6-6H40v820h1520z"/><path fill="url(#c)" d="M949.31 262.88h-54.83l-118.25 204.8 27.42 47.49 145.66-252.29"/><path fill="#fff" d="M856.91 262.88H657.99l99.46 172.27 99.46-172.27z"/><path fill="url(#d)" d="M1453.57 769.2l-32-5.8v-28.2l32 5.8v28.2m-40-67v23.2l-40.79-7.6-1.2 8.2 42 7.8v28l-40.79-7.4-1.2 8.2 42 7.6v24.4l7.81 1v-23.8l32.39 6V802l7.8 1v-23.8l43.4 8 1.2-8.2-44.6-8.2v-28.4l43.4 8 1.2-8.2-44.6-8.2v-23.6l-7.8-.8v23l-32.39-6V703l-7.81-.8m54.6-18.8c-21.2 0-37.2-15-37.2-34.6 0-17.6 12.6-30 30.4-30 20.8 0 38.8 16.2 38.8 35 0 17-13.6 29.6-32 29.6m-42.6-76v7.8l16.2 2c-13.4 9.6-18.2 18.2-18.2 32.4 0 24 19.4 42 45.2 42 22.6 0 38.8-15.4 38.8-37.2 0-12.4-4-20.2-16.2-31l14.2 1.6v-7.8l-80-9.8m-53.4-79.8v22.8l7.81 4.8V537l125.59 15.6V544l-133.4-16.4m62.2-120c-8.2 9.2-11.4 17.2-11.4 28.6 0 24.2 19.8 42.6 45.8 42.6 23.4 0 39.4-16 39.4-39.2 0-9.6-2.2-16.4-8-24l-10-1.2c8 9 10.6 15 10.6 24.4 0 19.4-12.4 31.8-31.8 31.8-22.4 0-38.6-14.6-38.6-34.6 0-10.8 3-17.4 12.6-27.4l-8.6-1m28.2-24.8c-22.6 0-40.19-17.2-40.19-39.2 0-19.2 15.39-33.2 36.39-33.2 23 0 41.4 16.4 41.4 37.2 0 20.4-15.6 35.2-37.6 35.2m-5.4-81c-24.8 0-42.79 16.6-42.79 39.8 0 7.4 1.39 13 5.39 22.4L1373 325l-5 6.2 45.4 37.2c21.59 17.6 33.59 23 50.59 23 25.8 0 44.2-18 44.2-43.2 0-26.6-21.8-46.4-51-46.4m-.2-26.4c-8-2-11.8-3.8-16.4-7.4a30 30 0 0 1-11-23.2A26.75 26.75 0 0 1 1442 222c4-2.4 7.6-3.6 15-4.4v57.8m7.2-65.6c-10.2.4-15.4 1.2-20.6 3.2-13.4 5.4-21.4 17.2-21.4 31.8 0 23 20 39.6 47.6 39.6 22.8 0 38.4-15 38.4-37.4 0-13.4-4.4-21.6-16.8-31.2l-3.8 5.4c9.6 8 13.2 14.8 13.2 25.2 0 17.8-12.8 30.2-31 30.2h-5.6v-66.8m-92-111.8v49.4l57 21.2c-3.8-9.8-5.2-15.4-5.2-22.8 0-20.8 13.8-34.2 35.2-34.2 23.2 0 41 17.6 41 40.6 0 11.4-5 21.8-12.6 26.6-4 2.4-7.8 3.6-15.8 5.2l2.8 7.6c21.6-3.2 33.6-17.2 33.6-39.2 0-28-21.6-49.6-49.6-49.6-25 0-42.4 16.6-42.4 40.4a48.77 48.77 0 0 0 1.6 12.8l-37.8-14.2V99l-7.81-1"/><path fill="url(#e)" d="M740.12 585.94a4.17 4.17 0 0 0-3 1.33c-1.55 1.56-1.83 3.81.14 5.93a77 77 0 0 1 9.32 12 4.13 4.13 0 0 0 3.62 2.19 4.71 4.71 0 0 0 2.31-.64c4.38-3.11.85-8-3.53-13.56-2.77-3.51-5.85-7.26-8.9-7.26m12-8.27a4.37 4.37 0 0 0-3.23 1.55c-1.41 1.7-1.55 4 .57 5.93a49.66 49.66 0 0 1 9 11.3 4.13 4.13 0 0 0 3.63 2.37 4.26 4.26 0 0 0 2-.53c4.66-2.83 1.41-8.19-2.68-13.28-2.72-3.55-6.14-7.34-9.34-7.34m-202.05-6c-4.33 0-5.31 4.91-6.07 8.69-2.4 11.86-7.2 42.36-1.13 75.27.66 3.63 2.95 7.52 7.21 7.52a9.64 9.64 0 0 0 4.09-1c4.66-2.26 3.53-9.18-1.41-9.6-7.06-38.41 2.11-74.13 2.26-74.56.7-3.1-.71-5.5-3.25-6.07a7.28 7.28 0 0 0-1.7-.22M598.87 658a19.08 19.08 0 0 1-6.59-1.13c-3.53-1.42-5.79-3.53-4.51-7.49.92-3 4.48-4.09 8.78-4.09a48.23 48.23 0 0 1 14.8 2.82c-.71 3.53-2.12 6.78-5.51 8.47a16.36 16.36 0 0 1-7 1.42m18.33-93.46c-2.68 0-5.36 1.65-5.29 5.06.42 11.3.42 6.64.28 17.94-2.12.19-4.44.26-6.78.26-7.93 0-16.14-.86-18.21-1h-.31a4.82 4.82 0 0 0-5.06 4.1c-.7 6.5 5.65 6.36 10.59 6.64 3.43.16 7.32.33 11.25.33 2.88 0 5.78-.09 8.52-.33.29 23.86.14 34.31-.14 40.67a55 55 0 0 0-14.39-2.11c-8.56 0-16.52 2.69-19.21 10.86-2.4 6.92.56 15.39 10.3 19.21a28 28 0 0 0 10.37 2 26.09 26.09 0 0 0 10.81-2.26c5.79-2.68 9.18-8.33 10.74-14.26a124.74 124.74 0 0 1 12.85 8.76 6.37 6.37 0 0 0 3.76 1.36 4.66 4.66 0 0 0 3.44-1.5c4.94-4.95-1.13-9.18-4.52-11.3a90.14 90.14 0 0 0-14.26-7.48c.7-9.61.14-22.6.28-44.77l8.19-1.13c4.09-.56 10.73-1.13 9.6-7.34-.35-2.37-2.2-3.84-4.86-3.84a8.6 8.6 0 0 0-1.63.17c-2.4.42-9.18 1.84-11.3 2.12 0 0 .28-9.89.28-17.37 0-3.16-2.65-4.78-5.3-4.78m373-.51c-4.88 0-5.16 5.25-5.69 9.24a391.55 391.55 0 0 0-2.83 42.37c-.12 3.8.43 9.1 6.09 9.1a11.74 11.74 0 0 0 2.1-.21l2.26-.42c5.51-1 5.08-9.46-.42-9.89.28-19.91 1.27-30.07 3.39-44.48.42-3.1-1.27-5.22-4-5.64a6.32 6.32 0 0 0-.94-.07m43.1 0a7.34 7.34 0 0 0-1.77.24c-2.69.7-4.1 3.24-3.25 6.35 4.52 16.24 5.37 25.14 4.09 42.36-2 25-12.84 39.12-30.92 48.58-3.25 1.69-3.81 4.37-2.68 6.63s2.76 3.12 4.53 3.12c2.26 0 4.81-1.35 7.19-2.69 20-11.58 29.93-32.06 31.91-54.37 1.41-17.08.85-27.39-2.68-41.51-.76-3.16-1.75-8.71-6.42-8.71m-324.16-.22c-2.88 0-5.78 1.8-5.78 5.4V614c-.14 14.12-.14 19.91.43 26.26 1.83 18.22 13.13 28 28.38 29.52a38.7 38.7 0 0 0 4 .2c9.62 0 19.27-3.27 25.34-6 3.95-1.84 10.45-5 7.2-10.73a5 5 0 0 0-4.49-2.88 6.33 6.33 0 0 0-3.13.9c-6 3.5-16.31 7.59-25.51 7.59-.83 0-1.64 0-2.45-.11-10.73-.84-17.51-6.92-18.64-19.63-.57-5.78-.28-12-.28-25.13.14-26.55 0-15.67.56-44.76.07-3.6-2.79-5.4-5.66-5.4m148.43 97.49a21.06 21.06 0 0 1-6.5-1 10.26 10.26 0 0 1-5.23-3.39 5.43 5.43 0 0 1 2.12-8 18.15 18.15 0 0 1 6.49-1.55h1.3a47.37 47.37 0 0 1 15.35 2.73c-.71 3.81-2 6.92-5.51 9.18a14.41 14.41 0 0 1-7.9 2m19.48-103c-2.61 0-5.23 1.63-5.23 4.88V575c-5.25.34-11.22.45-16.81.45-8.08 0-15.34-.23-18.35-.31a4.64 4.64 0 0 0-4.94 4.38c-.14 5.93 5.37 5.64 9.32 5.79 2.54 0 5.22.05 7.94.05 8.14 0 16.63-.16 23-.48.29 12.43.29 8.47.15 22.74a47 47 0 0 1-6.79.51c-10 0-15.17-3.55-15.53-3.9a6.59 6.59 0 0 0-3.66-1.18 4.46 4.46 0 0 0-3.82 1.88c-2.82 4.24.28 7.63 4.52 9.61a42.12 42.12 0 0 0 18.37 3.84 52.27 52.27 0 0 0 6.91-.46c0 6.92.14 16.24-.15 22.74a52.49 52.49 0 0 0-16-2.74h-1.87c-5.65.15-11.44 1.84-15.25 6.22-3.25 4-5.51 11.86-1 18.5 2.54 3.81 6.64 5.79 10.31 7.06a31.93 31.93 0 0 0 9.81 1.57 25.19 25.19 0 0 0 13-3.37c4.8-3 7.76-7.34 9.46-14a105.51 105.51 0 0 1 16.09 10.59 7.06 7.06 0 0 0 3.91 1.36 4.23 4.23 0 0 0 3.3-1.5c4.37-4.8-1.56-9.32-4.95-11.58-4.8-3.25-10.16-5.79-16.94-8.89.42-7.06.28-16.24.28-27.82 2.54-.85 5.65-1.84 8.9-3.11 3.67-1.55 9-3.67 6.77-9a4.5 4.5 0 0 0-4.21-2.81 5.82 5.82 0 0 0-2.42.56 95.92 95.92 0 0 1-9 3.67c0-3.39-.14-6.78-.14-10.17.14-3.95.14-7.77.14-10.87 6.07-.43 13.56-1.13 18.36-1.7 4-.42 9.6-.7 9-6.35a4.75 4.75 0 0 0-4.75-4.15 6.44 6.44 0 0 0-.75 0c-13.7 1.7-15.68 2.12-17.65 2.26h-4.24s.14-7.06.14-11.29c0-3.25-2.61-4.88-5.22-4.88"/><path fill="#fff" d="M482.89 778.78a31.63 31.63 0 0 1 10.88-.59 8.57 8.57 0 0 0-2.53 5.09 17.91 17.91 0 0 0 .09 6 14.86 14.86 0 0 1-3.08 2.86l-3.66 2.54a21 21 0 0 1-9.64 3.16 26 26 0 0 1-10.3-1.45q-2.82-.93-2.11-3a11.63 11.63 0 0 1 2.8-4.29A36.28 36.28 0 0 1 470 785c1.73-1.25 2.91-2.1 3.56-2.55a36.26 36.26 0 0 1 9.33-3.67zm-38.19.54a2.63 2.63 0 0 0-1.82 1.81 2.64 2.64 0 0 0 2.73 3.16 13.63 13.63 0 0 0 2.55-.5c.9-.26 1.8-.56 2.72-.89s1.67-.59 2.27-.76q5-1.46 9.88-2.69t10-2l-4.64 3.22a45.52 45.52 0 0 0-5.27 4.37 27 27 0 0 0-4.68 5.77 10.83 10.83 0 0 0-1.66 6.21q.18 3.12 4 5.73a13.6 13.6 0 0 0 6.83 2.31 23.92 23.92 0 0 0 7.49-.67 37.12 37.12 0 0 0 7.2-2.64 68.64 68.64 0 0 0 6.4-3.53l5.41-3.93a12.81 12.81 0 0 0 4.79 4.18 22.65 22.65 0 0 0 6.23 2.09 38.14 38.14 0 0 0 6.83.6 48.38 48.38 0 0 0 6.8-.48l2.63-.37a57.4 57.4 0 0 0 3.86-.69 7.8 7.8 0 0 0 3.13-1.35 2.35 2.35 0 0 0 .71-2.76q-.39-1.35-2.31-1.38a18.85 18.85 0 0 0-4.25.51q-2.34.54-4.59 1.2a14.1 14.1 0 0 1-3.33.67 32.84 32.84 0 0 1-7.66-.1 12.38 12.38 0 0 1-6.95-3.21 10 10 0 0 1-2.11-2.52 22.48 22.48 0 0 0 4.41-6.67 6.65 6.65 0 0 0-.69-6.74 4 4 0 0 0-2.75-1.35 3.12 3.12 0 0 0-.63-3.53 7.66 7.66 0 0 0-5.85-1.91 26.06 26.06 0 0 0-6.4 1.18c-2.91.33-5.91.64-9 .93a85.14 85.14 0 0 0-9.1 1.33zm-18.1-29c-1.53.93-3 1.77-4.41 2.51q2.46-3 5.11-5.8t5.52-5.72q5.13-4.83 10.23-9.35a111.72 111.72 0 0 1 10.7-8.4c1.3-.9 3-2 5-3.37a22.8 22.8 0 0 1 6.19-2.93 26 26 0 0 1-2 2.94 26.61 26.61 0 0 0-1.71 2.36 71.37 71.37 0 0 1-8.82 8.64A161.66 161.66 0 0 1 431 747.61zm-44.31 20.78a3.26 3.26 0 0 0 3.16 2 164 164 0 0 0 19.6-6.9 73.76 73.76 0 0 0-5.51 9.24 26.85 26.85 0 0 0-1.71 4.7 11.93 11.93 0 0 0-.34 4.85 7 7 0 0 0 1.94 4 6.82 6.82 0 0 0 4.79 1.83 22 22 0 0 0 7.1-.31q3.54-.75 7.28-1.35l25.58-4.54a13.58 13.58 0 0 0 3.45-1.4c1.27-.69 1.24-1.73-.07-3.11a3.8 3.8 0 0 0-4-.5 17.3 17.3 0 0 1-4.22.94q-6.24 1.43-12.6 2.41A94.73 94.73 0 0 1 414 784a6.22 6.22 0 0 1-1.91 0 72.603 72.603 0 0 0-7.4-.39 15.72 15.72 0 0 1 .82-5.71A35.23 35.23 0 0 1 408 772a48.57 48.57 0 0 1 3.45-5.45q1.85-2.55 3.33-4.84a196.35 196.35 0 0 0 25.43-14.91 169 169 0 0 0 22.48-18.65q1.29-1.26 3.3-2.92a47.87 47.87 0 0 0 3.85-3.57 18.74 18.74 0 0 0 2.95-3.94 6.69 6.69 0 0 0 .71-4.46c-.41-2.49-1.74-3.77-4-3.82a17.33 17.33 0 0 0-5.89.74 31.56 31.56 0 0 0-9.62 5.4q-4.39 3.58-8.23 7.15-4.59 4.08-9 8.3t-8.76 8.33q-4.24 4.56-8.73 9.3a115.29 115.29 0 0 0-8.43 10q-6.74 3-13.37 5.47a132.69 132.69 0 0 1-13.47 4.18c-1.84.52-2.39 1.46-1.71 2.79zm-16.43-31.79c-1.52.94-3 1.77-4.4 2.51q2.46-3 5.11-5.79c1.76-1.89 3.6-3.79 5.51-5.72q5.15-4.83 10.23-9.35a114.72 114.72 0 0 1 10.7-8.41q2-1.35 5-3.36a22.83 22.83 0 0 1 6.19-2.94 27.38 27.38 0 0 1-2 2.94 28.16 28.16 0 0 0-1.71 2.36 71.37 71.37 0 0 1-8.82 8.64 163.36 163.36 0 0 1-21.37 16.41zm-44.31 20.77a3.27 3.27 0 0 0 3.17 2 160.54 160.54 0 0 0 19.6-6.9 73.86 73.86 0 0 0-5.52 9.24 27 27 0 0 0-1.7 4.71 12.08 12.08 0 0 0-.35 4.84 7 7 0 0 0 1.95 4 6.8 6.8 0 0 0 4.79 1.83 21.49 21.49 0 0 0 7.1-.31q3.54-.73 7.28-1.35l25.58-4.53a14.12 14.12 0 0 0 3.45-1.4c1.26-.7 1.24-1.73-.08-3.11a3.76 3.76 0 0 0-4-.51 17.4 17.4 0 0 1-4.22.94q-6.24 1.44-12.6 2.41a94.75 94.75 0 0 1-12.79 1.1 6.07 6.07 0 0 1-1.92 0c-1-.1-2-.19-3.15-.25s-2.68-.13-4.24-.13a15.8 15.8 0 0 1 .82-5.72 33.54 33.54 0 0 1 2.55-5.83 51.12 51.12 0 0 1 3.44-5.46c1.23-1.69 2.34-3.31 3.34-4.83a196.3 196.3 0 0 0 25.42-14.92A167.64 167.64 0 0 0 402 717.17c.86-.84 2-1.81 3.31-2.93a46 46 0 0 0 3.85-3.57 18.83 18.83 0 0 0 3-3.94 6.68 6.68 0 0 0 .7-4.46c-.4-2.49-1.74-3.76-4-3.82a17.28 17.28 0 0 0-5.89.75 31.19 31.19 0 0 0-9.63 5.4q-4.38 3.58-8.23 7.15-4.57 4.08-9 8.29t-8.77 8.33q-4.24 4.57-8.73 9.3a112.13 112.13 0 0 0-8.42 10q-6.75 3-13.37 5.47a132.06 132.06 0 0 1-13.56 4.15q-2.73.8-1.71 2.79zm-45.7-21.52a16.39 16.39 0 0 1 4.81-2.43 16.56 16.56 0 0 1 5.47-.72 12 12 0 0 1 5.57 1.65 30.63 30.63 0 0 1-9.21 4.31 24.27 24.27 0 0 1-10.06.73 13.23 13.23 0 0 1 3.42-3.54zm-27.22 7.12a2.41 2.41 0 0 0 .73 2.48 2.84 2.84 0 0 0 3.32.5 15.77 15.77 0 0 1 3-1.07l4.25-1.68a41.78 41.78 0 0 1 4.87-1.57 6.76 6.76 0 0 0-.66 3.08c0 1.14 0 2.29.12 3.44A16.59 16.59 0 0 0 267 759a21 21 0 0 0 5.7 5.63 24.78 24.78 0 0 0 7.52 3.28 31.4 31.4 0 0 0 8.46 1 179.1 179.1 0 0 0 19.92-2.79l11.15-2.67c1-.24 2.22-.45 3.53-.64a5.36 5.36 0 0 0 3.31-1.75c1-1.09 1.11-2 .18-2.74a4 4 0 0 0-2.93-1q-2 .69-4.38 1.23c-1.56.35-3.09.75-4.59 1.19a91 91 0 0 1-9.95 1.93 92.93 92.93 0 0 1-10.18.82 61.92 61.92 0 0 1-7.9-.58 24.88 24.88 0 0 1-8-2.41 18.33 18.33 0 0 1-6.16-4.85 11.8 11.8 0 0 1-2.44-7.7l.82.15a26.7 26.7 0 0 0 9.12.91 30 30 0 0 0 8.78-1.93c.76-.29 1.95-.74 3.56-1.38a24.94 24.94 0 0 0 4.46-2.28 9.85 9.85 0 0 0 3.12-3.07 3.28 3.28 0 0 0-.08-3.64 8.34 8.34 0 0 0-5.33-4.17 27.85 27.85 0 0 0-6.72-1.21 31.78 31.78 0 0 0-11.26 2.11 21.41 21.41 0 0 0-9.05 6.37 68.11 68.11 0 0 0-8.87 2.44q-4.44 1.54-8.5 2.73a2 2 0 0 0-1.66 1.7zM134.19 732q5-2.51 10.32-4.53l-2.35 2.35c-1.72 1.68-3.78 3.58-6.15 5.71s-4.86 4.21-7.43 6.23a62.91 62.91 0 0 1-8 5.37 25.27 25.27 0 0 1-7.69 3 7.65 7.65 0 0 1 1.83-3.62 33.25 33.25 0 0 1 3.27-3.35q1.78-1.59 3.64-3t3.06-2.22a57.16 57.16 0 0 1 9.5-5.94zm140.41-78.27a4.3 4.3 0 0 0-.28-2.61 3.89 3.89 0 0 0-1.7-1.8 3.29 3.29 0 0 0-2.76-.07 20.15 20.15 0 0 0-6.8 5.16c-2.23 2.45-4.21 4.57-6 6.39q-6.48 6.3-12.81 12.93T231.87 687q-5.53 5.82-11.14 11.42t-11.35 11.39a74.86 74.86 0 0 0-15.13 1.09q-8.48.82-16.64 2.32t-16.45 3.63q8.85-9.91 16.94-18.69a153.63 153.63 0 0 0 14.84-18.86q2.28-3.21 5.05-7.83a44.6 44.6 0 0 0 4.27-9.47 19.63 19.63 0 0 0 .74-9.36 11.1 11.1 0 0 0-5.36-7.48 3.41 3.41 0 0 0-2.67-.59 4.4 4.4 0 0 0-2.24 1.19 3.57 3.57 0 0 0-1 2.26 3.42 3.42 0 0 0 .91 2.62q1.59 1.78 2.58 2.82c.66.69.88 2 .67 4a12.15 12.15 0 0 1-.81 4.44c-.54 1.4-1.08 2.83-1.63 4.29a91.46 91.46 0 0 1-11 17.64q-6.49 8.22-13.07 16.2-4.32 5-8.39 9.78t-8.56 9.55l-5.93 2.12q-5 1.65-10.41 3.87t-10.6 4.91a65 65 0 0 0-9.77 6.23 38.12 38.12 0 0 0-7.73 7.88 14.51 14.51 0 0 0-2.08 4.42 10.69 10.69 0 0 0-.35 4.31 4.82 4.82 0 0 0 1.87 3.22 7.46 7.46 0 0 0 4.8 1.19 20.87 20.87 0 0 0 8.79-3.2q4-2.6 7.48-5.37a175.85 175.85 0 0 0 13.34-11.77q6.36-6.21 12.45-12.78 8.12-2.37 16.44-4.17a150.43 150.43 0 0 1 16.59-2.64c2.61-.24 5.2-.45 7.8-.62s5.25-.36 8-.57q-5.27 5.44-10.26 11.26t-9.55 12a66.57 66.57 0 0 0-5.45 8.29 13.43 13.43 0 0 0-1.64 9.63 9.07 9.07 0 0 0 4 5.63 13.69 13.69 0 0 0 6.73 2.29 30.12 30.12 0 0 0 12.76-1.53q6.69-2.21 12.59-4.12 9.74-3.13 19.68-5.6t19.9-5.57a2.15 2.15 0 0 0 1.61-1.84 2.23 2.23 0 0 0-.66-2.25 1.84 1.84 0 0 0-2-.69c-.76.22-1.5.41-2.24.56l-11.06 3.33-22.42 6q-5.87 1.71-11.35 3.17a51.29 51.29 0 0 1-11.5 1.65c-1.29 0-2.85 0-4.68-.11a4.5 4.5 0 0 1-3.88-2.09 4.69 4.69 0 0 1 .17-3.91c.63-1.53 1.19-2.81 1.66-3.86a88.74 88.74 0 0 1 11.27-16.84q6.66-7.86 13.56-15.36a36.61 36.61 0 0 1 5.63.17q2.82.3 6.54 1a18.21 18.21 0 0 1 3.54 1.07 3.43 3.43 0 0 0 3.64-.62q2.75-2.28 1.55-3.88a8 8 0 0 0-4-2.54 30.41 30.41 0 0 0-6-1.32 32.48 32.48 0 0 0-4.11-.31.44.44 0 0 0-.33 0 .38.38 0 0 1-.32.05q7.46-8.25 15.21-16.23t15.51-15.54q6-6.15 12.41-11.94A101.48 101.48 0 0 1 272.91 656a3.2 3.2 0 0 0 1.69-2.27z"/><path fill="#fff" d="M482.89 778.78a31.63 31.63 0 0 1 10.88-.59 8.57 8.57 0 0 0-2.53 5.09 17.91 17.91 0 0 0 .09 6 14.86 14.86 0 0 1-3.08 2.86l-3.66 2.54a21 21 0 0 1-9.64 3.16 26 26 0 0 1-10.3-1.45q-2.82-.93-2.11-3a11.63 11.63 0 0 1 2.8-4.29A36.28 36.28 0 0 1 470 785c1.73-1.25 2.91-2.1 3.56-2.55a36.26 36.26 0 0 1 9.33-3.67zm-38.19.54a2.63 2.63 0 0 0-1.82 1.81 2.64 2.64 0 0 0 2.73 3.16 13.63 13.63 0 0 0 2.55-.5c.9-.26 1.8-.56 2.72-.89s1.67-.59 2.27-.76q5-1.46 9.88-2.69t10-2l-4.64 3.22a45.52 45.52 0 0 0-5.27 4.37 27 27 0 0 0-4.68 5.77 10.83 10.83 0 0 0-1.66 6.21q.18 3.12 4 5.73a13.6 13.6 0 0 0 6.83 2.31 23.92 23.92 0 0 0 7.49-.67 37.12 37.12 0 0 0 7.2-2.64 68.64 68.64 0 0 0 6.4-3.53l5.41-3.93a12.81 12.81 0 0 0 4.79 4.18 22.65 22.65 0 0 0 6.23 2.09 38.14 38.14 0 0 0 6.83.6 48.38 48.38 0 0 0 6.8-.48l2.63-.37a57.4 57.4 0 0 0 3.86-.69 7.8 7.8 0 0 0 3.13-1.35 2.35 2.35 0 0 0 .71-2.76q-.39-1.35-2.31-1.38a18.85 18.85 0 0 0-4.25.51q-2.34.54-4.59 1.2a14.1 14.1 0 0 1-3.33.67 32.84 32.84 0 0 1-7.66-.1 12.38 12.38 0 0 1-6.95-3.21 10 10 0 0 1-2.11-2.52 22.48 22.48 0 0 0 4.41-6.67 6.65 6.65 0 0 0-.69-6.74 4 4 0 0 0-2.75-1.35 3.12 3.12 0 0 0-.63-3.53 7.66 7.66 0 0 0-5.85-1.91 26.06 26.06 0 0 0-6.4 1.18c-2.91.33-5.91.64-9 .93a85.14 85.14 0 0 0-9.1 1.33zm-18.1-29c-1.53.93-3 1.77-4.41 2.51q2.46-3 5.11-5.8t5.52-5.72q5.13-4.83 10.23-9.35a111.72 111.72 0 0 1 10.7-8.4c1.3-.9 3-2 5-3.37a22.8 22.8 0 0 1 6.19-2.93 26 26 0 0 1-2 2.94 26.61 26.61 0 0 0-1.71 2.36 71.37 71.37 0 0 1-8.82 8.64A161.66 161.66 0 0 1 431 747.61zm-44.31 20.78a3.26 3.26 0 0 0 3.16 2 164 164 0 0 0 19.6-6.9 73.76 73.76 0 0 0-5.51 9.24 26.85 26.85 0 0 0-1.71 4.7 11.93 11.93 0 0 0-.34 4.85 7 7 0 0 0 1.94 4 6.82 6.82 0 0 0 4.79 1.83 22 22 0 0 0 7.1-.31q3.54-.75 7.28-1.35l25.58-4.54a13.58 13.58 0 0 0 3.45-1.4c1.27-.69 1.24-1.73-.07-3.11a3.8 3.8 0 0 0-4-.5 17.3 17.3 0 0 1-4.22.94q-6.24 1.43-12.6 2.41A94.73 94.73 0 0 1 414 784a6.22 6.22 0 0 1-1.91 0 72.603 72.603 0 0 0-7.4-.39 15.72 15.72 0 0 1 .82-5.71A35.23 35.23 0 0 1 408 772a48.57 48.57 0 0 1 3.45-5.45q1.85-2.55 3.33-4.84a196.35 196.35 0 0 0 25.43-14.91 169 169 0 0 0 22.48-18.65q1.29-1.26 3.3-2.92a47.87 47.87 0 0 0 3.85-3.57 18.74 18.74 0 0 0 2.95-3.94 6.69 6.69 0 0 0 .71-4.46c-.41-2.49-1.74-3.77-4-3.82a17.33 17.33 0 0 0-5.89.74 31.56 31.56 0 0 0-9.62 5.4q-4.39 3.58-8.23 7.15-4.59 4.08-9 8.3t-8.76 8.33q-4.24 4.56-8.73 9.3a115.29 115.29 0 0 0-8.43 10q-6.74 3-13.37 5.47a132.69 132.69 0 0 1-13.47 4.18c-1.84.52-2.39 1.46-1.71 2.79zm-16.43-31.79c-1.52.94-3 1.77-4.4 2.51q2.46-3 5.11-5.79c1.76-1.89 3.6-3.79 5.51-5.72q5.15-4.83 10.23-9.35a114.72 114.72 0 0 1 10.7-8.41q2-1.35 5-3.36a22.83 22.83 0 0 1 6.19-2.94 27.38 27.38 0 0 1-2 2.94 28.16 28.16 0 0 0-1.71 2.36 71.37 71.37 0 0 1-8.82 8.64 163.36 163.36 0 0 1-21.37 16.41zm-44.31 20.77a3.27 3.27 0 0 0 3.17 2 160.54 160.54 0 0 0 19.6-6.9 73.86 73.86 0 0 0-5.52 9.24 27 27 0 0 0-1.7 4.71 12.08 12.08 0 0 0-.35 4.84 7 7 0 0 0 1.95 4 6.8 6.8 0 0 0 4.79 1.83 21.49 21.49 0 0 0 7.1-.31q3.54-.73 7.28-1.35l25.58-4.53a14.12 14.12 0 0 0 3.45-1.4c1.26-.7 1.24-1.73-.08-3.11a3.76 3.76 0 0 0-4-.51 17.4 17.4 0 0 1-4.22.94q-6.24 1.44-12.6 2.41a94.75 94.75 0 0 1-12.79 1.1 6.07 6.07 0 0 1-1.92 0c-1-.1-2-.19-3.15-.25s-2.68-.13-4.24-.13a15.8 15.8 0 0 1 .82-5.72 33.54 33.54 0 0 1 2.55-5.83 51.12 51.12 0 0 1 3.44-5.46c1.23-1.69 2.34-3.31 3.34-4.83a196.3 196.3 0 0 0 25.42-14.92A167.64 167.64 0 0 0 402 717.17c.86-.84 2-1.81 3.31-2.93a46 46 0 0 0 3.85-3.57 18.83 18.83 0 0 0 3-3.94 6.68 6.68 0 0 0 .7-4.46c-.4-2.49-1.74-3.76-4-3.82a17.28 17.28 0 0 0-5.89.75 31.19 31.19 0 0 0-9.63 5.4q-4.38 3.58-8.23 7.15-4.57 4.08-9 8.29t-8.77 8.33q-4.24 4.57-8.73 9.3a112.13 112.13 0 0 0-8.42 10q-6.75 3-13.37 5.47a132.06 132.06 0 0 1-13.56 4.15q-2.73.8-1.71 2.79zm-45.7-21.52a16.39 16.39 0 0 1 4.81-2.43 16.56 16.56 0 0 1 5.47-.72 12 12 0 0 1 5.57 1.65 30.63 30.63 0 0 1-9.21 4.31 24.27 24.27 0 0 1-10.06.73 13.23 13.23 0 0 1 3.42-3.54zm-27.22 7.12a2.41 2.41 0 0 0 .73 2.48 2.84 2.84 0 0 0 3.32.5 15.77 15.77 0 0 1 3-1.07l4.25-1.68a41.78 41.78 0 0 1 4.87-1.57 6.76 6.76 0 0 0-.66 3.08c0 1.14 0 2.29.12 3.44A16.59 16.59 0 0 0 267 759a21 21 0 0 0 5.7 5.63 24.78 24.78 0 0 0 7.52 3.28 31.4 31.4 0 0 0 8.46 1 179.1 179.1 0 0 0 19.92-2.79l11.15-2.67c1-.24 2.22-.45 3.53-.64a5.36 5.36 0 0 0 3.31-1.75c1-1.09 1.11-2 .18-2.74a4 4 0 0 0-2.93-1q-2 .69-4.38 1.23c-1.56.35-3.09.75-4.59 1.19a91 91 0 0 1-9.95 1.93 92.93 92.93 0 0 1-10.18.82 61.92 61.92 0 0 1-7.9-.58 24.88 24.88 0 0 1-8-2.41 18.33 18.33 0 0 1-6.16-4.85 11.8 11.8 0 0 1-2.44-7.7l.82.15a26.7 26.7 0 0 0 9.12.91 30 30 0 0 0 8.78-1.93c.76-.29 1.95-.74 3.56-1.38a24.94 24.94 0 0 0 4.46-2.28 9.85 9.85 0 0 0 3.12-3.07 3.28 3.28 0 0 0-.08-3.64 8.34 8.34 0 0 0-5.33-4.17 27.85 27.85 0 0 0-6.72-1.21 31.78 31.78 0 0 0-11.26 2.11 21.41 21.41 0 0 0-9.05 6.37 68.11 68.11 0 0 0-8.87 2.44q-4.44 1.54-8.5 2.73a2 2 0 0 0-1.66 1.7zM134.19 732q5-2.51 10.32-4.53l-2.35 2.35c-1.72 1.68-3.78 3.58-6.15 5.71s-4.86 4.21-7.43 6.23a62.91 62.91 0 0 1-8 5.37 25.27 25.27 0 0 1-7.69 3 7.65 7.65 0 0 1 1.83-3.62 33.25 33.25 0 0 1 3.27-3.35q1.78-1.59 3.64-3t3.06-2.22a57.16 57.16 0 0 1 9.5-5.94zm140.41-78.27a4.3 4.3 0 0 0-.28-2.61 3.89 3.89 0 0 0-1.7-1.8 3.29 3.29 0 0 0-2.76-.07 20.15 20.15 0 0 0-6.8 5.16c-2.23 2.45-4.21 4.57-6 6.39q-6.48 6.3-12.81 12.93T231.87 687q-5.53 5.82-11.14 11.42t-11.35 11.39a74.86 74.86 0 0 0-15.13 1.09q-8.48.82-16.64 2.32t-16.45 3.63q8.85-9.91 16.94-18.69a153.63 153.63 0 0 0 14.84-18.86q2.28-3.21 5.05-7.83a44.6 44.6 0 0 0 4.27-9.47 19.63 19.63 0 0 0 .74-9.36 11.1 11.1 0 0 0-5.36-7.48 3.41 3.41 0 0 0-2.67-.59 4.4 4.4 0 0 0-2.24 1.19 3.57 3.57 0 0 0-1 2.26 3.42 3.42 0 0 0 .91 2.62q1.59 1.78 2.58 2.82c.66.69.88 2 .67 4a12.15 12.15 0 0 1-.81 4.44c-.54 1.4-1.08 2.83-1.63 4.29a91.46 91.46 0 0 1-11 17.64q-6.49 8.22-13.07 16.2-4.32 5-8.39 9.78t-8.56 9.55l-5.93 2.12q-5 1.65-10.41 3.87t-10.6 4.91a65 65 0 0 0-9.77 6.23 38.12 38.12 0 0 0-7.73 7.88 14.51 14.51 0 0 0-2.08 4.42 10.69 10.69 0 0 0-.35 4.31 4.82 4.82 0 0 0 1.87 3.22 7.46 7.46 0 0 0 4.8 1.19 20.87 20.87 0 0 0 8.79-3.2q4-2.6 7.48-5.37a175.85 175.85 0 0 0 13.34-11.77q6.36-6.21 12.45-12.78 8.12-2.37 16.44-4.17a150.43 150.43 0 0 1 16.59-2.64c2.61-.24 5.2-.45 7.8-.62s5.25-.36 8-.57q-5.27 5.44-10.26 11.26t-9.55 12a66.57 66.57 0 0 0-5.45 8.29 13.43 13.43 0 0 0-1.64 9.63 9.07 9.07 0 0 0 4 5.63 13.69 13.69 0 0 0 6.73 2.29 30.12 30.12 0 0 0 12.76-1.53q6.69-2.21 12.59-4.12 9.74-3.13 19.68-5.6t19.9-5.57a2.15 2.15 0 0 0 1.61-1.84 2.23 2.23 0 0 0-.66-2.25 1.84 1.84 0 0 0-2-.69c-.76.22-1.5.41-2.24.56l-11.06 3.33-22.42 6q-5.87 1.71-11.35 3.17a51.29 51.29 0 0 1-11.5 1.65c-1.29 0-2.85 0-4.68-.11a4.5 4.5 0 0 1-3.88-2.09 4.69 4.69 0 0 1 .17-3.91c.63-1.53 1.19-2.81 1.66-3.86a88.74 88.74 0 0 1 11.27-16.84q6.66-7.86 13.56-15.36a36.61 36.61 0 0 1 5.63.17q2.82.3 6.54 1a18.21 18.21 0 0 1 3.54 1.07 3.43 3.43 0 0 0 3.64-.62q2.75-2.28 1.55-3.88a8 8 0 0 0-4-2.54 30.41 30.41 0 0 0-6-1.32 32.48 32.48 0 0 0-4.11-.31.44.44 0 0 0-.33 0 .38.38 0 0 1-.32.05q7.46-8.25 15.21-16.23t15.51-15.54q6-6.15 12.41-11.94A101.48 101.48 0 0 1 272.91 656a3.2 3.2 0 0 0 1.69-2.27z"/><path fill="#fff" d="M479.89 774a31.39 31.39 0 0 1 10.88-.58 8.52 8.52 0 0 0-2.53 5.09 17.91 17.91 0 0 0 .09 6 14.81 14.81 0 0 1-3.08 2.85l-3.66 2.54A21 21 0 0 1 472 793a25.76 25.76 0 0 1-10.3-1.44q-2.82-.94-2.11-3a11.74 11.74 0 0 1 2.8-4.3 35.47 35.47 0 0 1 4.68-4.05c1.73-1.26 2.91-2.11 3.56-2.56a36.26 36.26 0 0 1 9.26-3.65zm-38.19.55a2.6 2.6 0 0 0-1.82 1.8 2.63 2.63 0 0 0 2.73 3.16 12.86 12.86 0 0 0 2.55-.5c.9-.26 1.8-.56 2.72-.89s1.67-.58 2.27-.76q5-1.45 9.88-2.69t10-2l-4.64 3.21a45.7 45.7 0 0 0-5.27 4.38 27 27 0 0 0-4.68 5.76 10.83 10.83 0 0 0-1.66 6.21q.18 3.14 4 5.74a13.69 13.69 0 0 0 6.83 2.3 23.62 23.62 0 0 0 7.49-.67 36.47 36.47 0 0 0 7.2-2.64 66.41 66.41 0 0 0 6.4-3.53l5.41-3.93a12.81 12.81 0 0 0 4.79 4.18 22.65 22.65 0 0 0 6.23 2.09 38.14 38.14 0 0 0 6.83.6 46.92 46.92 0 0 0 6.8-.48l2.63-.37a57.4 57.4 0 0 0 3.86-.69 7.8 7.8 0 0 0 3.13-1.35 2.34 2.34 0 0 0 .71-2.75c-.26-.91-1-1.36-2.31-1.38a17.77 17.77 0 0 0-4.25.51c-1.56.35-3.09.75-4.59 1.19a14.25 14.25 0 0 1-3.33.68 32.85 32.85 0 0 1-7.66-.11 12.38 12.38 0 0 1-6.89-3.17 10 10 0 0 1-2.11-2.52 22.35 22.35 0 0 0 4.41-6.67 6.65 6.65 0 0 0-.69-6.74 4 4 0 0 0-2.75-1.35 3.12 3.12 0 0 0-.63-3.53 7.7 7.7 0 0 0-5.85-1.91 26.53 26.53 0 0 0-6.4 1.18c-2.91.33-5.91.64-9 .93a82.67 82.67 0 0 0-9.1 1.34zm-18.1-29c-1.53.93-3 1.77-4.41 2.51q2.46-3 5.11-5.8t5.52-5.72q5.13-4.83 10.23-9.34a110.25 110.25 0 0 1 10.7-8.41c1.3-.9 3-2 5-3.36a22.54 22.54 0 0 1 6.19-2.94 26 26 0 0 1-2 2.94 28.16 28.16 0 0 0-1.71 2.36 71.37 71.37 0 0 1-8.82 8.64A162.59 162.59 0 0 1 428 742.79zm-44.31 20.77a3.26 3.26 0 0 0 3.16 2 162.25 162.25 0 0 0 19.6-6.9 73.76 73.76 0 0 0-5.51 9.24 26.67 26.67 0 0 0-1.71 4.71 11.88 11.88 0 0 0-.34 4.84 7 7 0 0 0 1.94 4 6.82 6.82 0 0 0 4.79 1.83 21.49 21.49 0 0 0 7.1-.31q3.54-.75 7.28-1.35l25.58-4.54a13.22 13.22 0 0 0 3.45-1.4c1.27-.69 1.24-1.72-.07-3.1a3.78 3.78 0 0 0-4-.51 17.3 17.3 0 0 1-4.22.94q-6.24 1.44-12.6 2.41a96.4 96.4 0 0 1-12.79 1.1 6.34 6.34 0 0 1-1.91 0c-1-.1-2-.19-3.16-.25s-2.68-.13-4.24-.13a15.77 15.77 0 0 1 .82-5.72 34.77 34.77 0 0 1 2.55-5.83 49.64 49.64 0 0 1 3.45-5.46q1.85-2.55 3.33-4.84A196.35 196.35 0 0 0 437.25 742a168.21 168.21 0 0 0 22.48-18.65c.86-.83 2-1.81 3.3-2.92a47.87 47.87 0 0 0 3.85-3.57 18.49 18.49 0 0 0 2.95-3.94 6.69 6.69 0 0 0 .71-4.46c-.41-2.49-1.74-3.76-4-3.82a17.33 17.33 0 0 0-5.89.74 31.38 31.38 0 0 0-9.62 5.41q-4.39 3.57-8.23 7.14-4.59 4.08-9 8.3t-8.76 8.33q-4.24 4.58-8.73 9.3a115.29 115.29 0 0 0-8.43 10q-6.74 3.06-13.37 5.47a132.69 132.69 0 0 1-13.51 4.15c-1.84.52-2.39 1.46-1.71 2.79zm-16.43-31.79q-2.28 1.41-4.4 2.51 2.46-3 5.11-5.79c1.76-1.89 3.6-3.79 5.51-5.72q5.15-4.83 10.23-9.35a114.72 114.72 0 0 1 10.7-8.41q2-1.35 5-3.36a22.5 22.5 0 0 1 6.19-2.93 28.42 28.42 0 0 1-2 2.94 28.26 28.26 0 0 0-1.71 2.35 72.2 72.2 0 0 1-8.82 8.65 163.28 163.28 0 0 1-21.33 16.4zm-44.31 20.77a3.27 3.27 0 0 0 3.17 2 160.54 160.54 0 0 0 19.6-6.9 74.69 74.69 0 0 0-5.52 9.25 26.84 26.84 0 0 0-1.7 4.7 12.11 12.11 0 0 0-.35 4.85 7.05 7.05 0 0 0 1.95 4 6.84 6.84 0 0 0 4.79 1.83 21.77 21.77 0 0 0 7.1-.32q3.54-.74 7.28-1.34l25.58-4.54a13.73 13.73 0 0 0 3.45-1.4c1.26-.7 1.24-1.73-.08-3.11a3.74 3.74 0 0 0-4-.5 17.89 17.89 0 0 1-4.22.94q-6.24 1.43-12.6 2.41a96.38 96.38 0 0 1-12.79 1.09 6.07 6.07 0 0 1-1.92 0c-1-.1-2-.18-3.15-.25s-2.68-.13-4.24-.13a15.8 15.8 0 0 1 .82-5.72 33.54 33.54 0 0 1 2.55-5.83 51.12 51.12 0 0 1 3.44-5.46q1.85-2.54 3.34-4.83A196.23 196.23 0 0 0 376.51 731 167.71 167.71 0 0 0 399 712.34c.86-.84 2-1.81 3.31-2.92a49.62 49.62 0 0 0 3.85-3.57 18.88 18.88 0 0 0 3-4 6.68 6.68 0 0 0 .7-4.46c-.4-2.49-1.74-3.76-4-3.82a17.53 17.53 0 0 0-5.89.75 31.4 31.4 0 0 0-9.63 5.4q-4.38 3.59-8.23 7.15-4.57 4.08-9 8.29t-8.77 8.33q-4.24 4.58-8.73 9.3a112.13 112.13 0 0 0-8.42 10q-6.75 3-13.37 5.47a132.06 132.06 0 0 1-13.56 4.15q-2.73.85-1.71 2.84zm-45.7-21.51a16.18 16.18 0 0 1 4.81-2.44 16.55 16.55 0 0 1 5.47-.71 11.8 11.8 0 0 1 5.57 1.65 30.85 30.85 0 0 1-9.21 4.3 24.44 24.44 0 0 1-10.06.74 13 13 0 0 1 3.42-3.59zm-27.22 7.12a2.4 2.4 0 0 0 .73 2.47 2.83 2.83 0 0 0 3.32.5 14.92 14.92 0 0 1 3-1.06l4.25-1.68a40 40 0 0 1 4.87-1.58 6.8 6.8 0 0 0-.66 3.09c0 1.14 0 2.28.12 3.43a16.66 16.66 0 0 0 2.78 8.19 21 21 0 0 0 5.7 5.62 24.78 24.78 0 0 0 7.52 3.28 31.4 31.4 0 0 0 8.46 1 181.41 181.41 0 0 0 19.92-2.78l11.15-2.68c1-.23 2.22-.45 3.53-.64a5.35 5.35 0 0 0 3.31-1.74c1-1.09 1.11-2 .18-2.74a4 4 0 0 0-2.93-1q-2 .69-4.38 1.23c-1.56.36-3.09.76-4.59 1.19a91.53 91.53 0 0 1-20.13 2.75 63.67 63.67 0 0 1-7.9-.57 25.39 25.39 0 0 1-8-2.41 18.23 18.23 0 0 1-6.16-4.86 11.77 11.77 0 0 1-2.44-7.69l.82.15a26.94 26.94 0 0 0 9.12.9 30 30 0 0 0 8.78-1.93c.76-.28 1.95-.74 3.56-1.38a24.94 24.94 0 0 0 4.46-2.28 9.93 9.93 0 0 0 3.12-3.06A3.3 3.3 0 0 0 297 731a8.35 8.35 0 0 0-5.33-4.16 27.43 27.43 0 0 0-6.72-1.22 31.8 31.8 0 0 0-11.26 2.12 21.39 21.39 0 0 0-9.05 6.36 69.73 69.73 0 0 0-8.87 2.44q-4.44 1.54-8.5 2.73a2 2 0 0 0-1.64 1.59zm-114.44-13.77c3.36-1.66 6.8-3.18 10.32-4.53l-2.35 2.39c-1.72 1.68-3.78 3.58-6.15 5.71s-4.86 4.21-7.43 6.23a62.91 62.91 0 0 1-8 5.37 25.27 25.27 0 0 1-7.69 3 7.62 7.62 0 0 1 1.83-3.61 33.34 33.34 0 0 1 3.27-3.36q1.78-1.59 3.64-3c1.23-.91 2.25-1.65 3.06-2.21a56.57 56.57 0 0 1 9.5-5.99zM271.6 648.9a4.3 4.3 0 0 0-.28-2.61 3.89 3.89 0 0 0-1.7-1.8 3.29 3.29 0 0 0-2.76-.07 20.06 20.06 0 0 0-6.8 5.17q-3.35 3.66-6 6.38-6.48 6.3-12.81 12.94t-12.42 13.21q-5.53 5.83-11.14 11.42t-11.35 11.39a74.84 74.84 0 0 0-15.13 1.1q-8.48.81-16.64 2.31T158.16 712q8.85-9.91 16.94-18.69a153.63 153.63 0 0 0 14.84-18.86q2.28-3.21 5.05-7.83a44.6 44.6 0 0 0 4.27-9.47 19.63 19.63 0 0 0 .74-9.36 11.1 11.1 0 0 0-5.36-7.48 3.41 3.41 0 0 0-2.67-.59 4.4 4.4 0 0 0-2.24 1.19 3.6 3.6 0 0 0-1 2.27 3.43 3.43 0 0 0 .91 2.62c1.06 1.19 1.92 2.13 2.58 2.81s.88 2 .67 4A12.24 12.24 0 0 1 192 657c-.54 1.39-1.08 2.82-1.63 4.29a91.69 91.69 0 0 1-11 17.63q-6.49 8.22-13.07 16.2-4.32 5-8.39 9.78t-8.56 9.55l-5.93 2.12q-5 1.66-10.41 3.88t-10.6 4.9a65 65 0 0 0-9.77 6.23 38.37 38.37 0 0 0-7.73 7.88 14.46 14.46 0 0 0-2.08 4.43 10.63 10.63 0 0 0-.35 4.3 4.82 4.82 0 0 0 1.87 3.22 7.46 7.46 0 0 0 4.8 1.2 21 21 0 0 0 8.79-3.21q4-2.6 7.48-5.36 7-5.58 13.34-11.78t12.45-12.78q8.12-2.37 16.44-4.17a155.33 155.33 0 0 1 16.59-2.64c2.61-.24 5.2-.45 7.8-.62s5.25-.36 8-.57q-5.27 5.44-10.26 11.26t-9.55 12a66.57 66.57 0 0 0-5.45 8.29 13.43 13.43 0 0 0-1.64 9.63 9.07 9.07 0 0 0 4 5.63 13.59 13.59 0 0 0 6.73 2.29 30 30 0 0 0 12.76-1.53c4.46-1.46 8.66-2.84 12.59-4.11q9.74-3.15 19.68-5.61t19.9-5.57a2.15 2.15 0 0 0 1.61-1.84 2.23 2.23 0 0 0-.66-2.25 1.83 1.83 0 0 0-2-.68c-.76.21-1.5.4-2.24.55l-11.06 3.33-22.42 6q-5.87 1.71-11.35 3.17a51.29 51.29 0 0 1-11.5 1.65 45.79 45.79 0 0 1-4.68-.1 4.53 4.53 0 0 1-3.88-2.1 4.69 4.69 0 0 1 .17-3.91c.63-1.52 1.19-2.81 1.66-3.86a89.06 89.06 0 0 1 11.27-16.84q6.66-7.86 13.56-15.36a36.61 36.61 0 0 1 5.63.17q2.82.3 6.54 1a18.21 18.21 0 0 1 3.54 1.07 3.41 3.41 0 0 0 3.64-.62c1.83-1.51 2.35-2.81 1.55-3.88a8 8 0 0 0-4-2.54 29.72 29.72 0 0 0-6-1.31A31.3 31.3 0 0 0 214 705a.39.39 0 0 0-.33.05.42.42 0 0 1-.32 0q7.46-8.25 15.21-16.23t15.51-15.53q6-6.17 12.41-11.94a100.71 100.71 0 0 1 13.39-10.27 3.2 3.2 0 0 0 1.73-2.18z"/><path fill="#f2ea32" d="M479.89 774a31.39 31.39 0 0 1 10.88-.58 8.52 8.52 0 0 0-2.53 5.09 17.91 17.91 0 0 0 .09 6 14.81 14.81 0 0 1-3.08 2.85l-3.66 2.54A21 21 0 0 1 472 793a25.76 25.76 0 0 1-10.3-1.44q-2.82-.94-2.11-3a11.74 11.74 0 0 1 2.8-4.3 35.47 35.47 0 0 1 4.68-4.05c1.73-1.26 2.91-2.11 3.56-2.56a36.26 36.26 0 0 1 9.26-3.65zm-38.19.55a2.6 2.6 0 0 0-1.82 1.8 2.63 2.63 0 0 0 2.73 3.16 12.86 12.86 0 0 0 2.55-.5c.9-.26 1.8-.56 2.72-.89s1.67-.58 2.27-.76q5-1.45 9.88-2.69t10-2l-4.64 3.21a45.7 45.7 0 0 0-5.27 4.38 27 27 0 0 0-4.68 5.76 10.83 10.83 0 0 0-1.66 6.21q.18 3.14 4 5.74a13.69 13.69 0 0 0 6.83 2.3 23.62 23.62 0 0 0 7.49-.67 36.47 36.47 0 0 0 7.2-2.64 66.41 66.41 0 0 0 6.4-3.53l5.41-3.93a12.81 12.81 0 0 0 4.79 4.18 22.65 22.65 0 0 0 6.23 2.09 38.14 38.14 0 0 0 6.83.6 46.92 46.92 0 0 0 6.8-.48l2.63-.37a57.4 57.4 0 0 0 3.86-.69 7.8 7.8 0 0 0 3.13-1.35 2.34 2.34 0 0 0 .71-2.75c-.26-.91-1-1.36-2.31-1.38a17.77 17.77 0 0 0-4.25.51c-1.56.35-3.09.75-4.59 1.19a14.25 14.25 0 0 1-3.33.68 32.85 32.85 0 0 1-7.66-.11 12.38 12.38 0 0 1-6.89-3.17 10 10 0 0 1-2.11-2.52 22.35 22.35 0 0 0 4.41-6.67 6.65 6.65 0 0 0-.69-6.74 4 4 0 0 0-2.75-1.35 3.12 3.12 0 0 0-.63-3.53 7.7 7.7 0 0 0-5.85-1.91 26.53 26.53 0 0 0-6.4 1.18c-2.91.33-5.91.64-9 .93a82.67 82.67 0 0 0-9.1 1.34zm-18.1-29c-1.53.93-3 1.77-4.41 2.51q2.46-3 5.11-5.8t5.52-5.72q5.13-4.83 10.23-9.34a110.25 110.25 0 0 1 10.7-8.41c1.3-.9 3-2 5-3.36a22.54 22.54 0 0 1 6.19-2.94 26 26 0 0 1-2 2.94 28.16 28.16 0 0 0-1.71 2.36 71.37 71.37 0 0 1-8.82 8.64A162.59 162.59 0 0 1 428 742.79zm-44.31 20.77a3.26 3.26 0 0 0 3.16 2 162.25 162.25 0 0 0 19.6-6.9 73.76 73.76 0 0 0-5.51 9.24 26.67 26.67 0 0 0-1.71 4.71 11.88 11.88 0 0 0-.34 4.84 7 7 0 0 0 1.94 4 6.82 6.82 0 0 0 4.79 1.83 21.49 21.49 0 0 0 7.1-.31q3.54-.75 7.28-1.35l25.58-4.54a13.22 13.22 0 0 0 3.45-1.4c1.27-.69 1.24-1.72-.07-3.1a3.78 3.78 0 0 0-4-.51 17.3 17.3 0 0 1-4.22.94q-6.24 1.44-12.6 2.41a96.4 96.4 0 0 1-12.79 1.1 6.34 6.34 0 0 1-1.91 0c-1-.1-2-.19-3.16-.25s-2.68-.13-4.24-.13a15.77 15.77 0 0 1 .82-5.72 34.77 34.77 0 0 1 2.55-5.83 49.64 49.64 0 0 1 3.45-5.46q1.85-2.55 3.33-4.84A196.35 196.35 0 0 0 437.25 742a168.21 168.21 0 0 0 22.48-18.65c.86-.83 2-1.81 3.3-2.92a47.87 47.87 0 0 0 3.85-3.57 18.49 18.49 0 0 0 2.95-3.94 6.69 6.69 0 0 0 .71-4.46c-.41-2.49-1.74-3.76-4-3.82a17.33 17.33 0 0 0-5.89.74 31.38 31.38 0 0 0-9.62 5.41q-4.39 3.57-8.23 7.14-4.59 4.08-9 8.3t-8.76 8.33q-4.24 4.58-8.73 9.3a115.29 115.29 0 0 0-8.43 10q-6.74 3.06-13.37 5.47a132.69 132.69 0 0 1-13.51 4.15c-1.84.52-2.39 1.46-1.71 2.79zm-16.43-31.79q-2.28 1.41-4.4 2.51 2.46-3 5.11-5.79c1.76-1.89 3.6-3.79 5.51-5.72q5.15-4.83 10.23-9.35a114.72 114.72 0 0 1 10.7-8.41q2-1.35 5-3.36a22.5 22.5 0 0 1 6.19-2.93 28.42 28.42 0 0 1-2 2.94 28.26 28.26 0 0 0-1.71 2.35 72.2 72.2 0 0 1-8.82 8.65 163.28 163.28 0 0 1-21.33 16.4zm-44.31 20.77a3.27 3.27 0 0 0 3.17 2 160.54 160.54 0 0 0 19.6-6.9 74.69 74.69 0 0 0-5.52 9.25 26.84 26.84 0 0 0-1.7 4.7 12.11 12.11 0 0 0-.35 4.85 7.05 7.05 0 0 0 1.95 4 6.84 6.84 0 0 0 4.79 1.83 21.77 21.77 0 0 0 7.1-.32q3.54-.74 7.28-1.34l25.58-4.54a13.73 13.73 0 0 0 3.45-1.4c1.26-.7 1.24-1.73-.08-3.11a3.74 3.74 0 0 0-4-.5 17.89 17.89 0 0 1-4.22.94q-6.24 1.43-12.6 2.41a96.38 96.38 0 0 1-12.79 1.09 6.07 6.07 0 0 1-1.92 0c-1-.1-2-.18-3.15-.25s-2.68-.13-4.24-.13a15.8 15.8 0 0 1 .82-5.72 33.54 33.54 0 0 1 2.55-5.83 51.12 51.12 0 0 1 3.44-5.46q1.85-2.54 3.34-4.83A196.23 196.23 0 0 0 376.51 731 167.71 167.71 0 0 0 399 712.34c.86-.84 2-1.81 3.31-2.92a49.62 49.62 0 0 0 3.85-3.57 18.88 18.88 0 0 0 3-4 6.68 6.68 0 0 0 .7-4.46c-.4-2.49-1.74-3.76-4-3.82a17.53 17.53 0 0 0-5.89.75 31.4 31.4 0 0 0-9.63 5.4q-4.38 3.59-8.23 7.15-4.57 4.08-9 8.29t-8.77 8.33q-4.24 4.58-8.73 9.3a112.13 112.13 0 0 0-8.42 10q-6.75 3-13.37 5.47a132.06 132.06 0 0 1-13.56 4.15q-2.73.85-1.71 2.84zm-45.7-21.51a16.18 16.18 0 0 1 4.81-2.44 16.55 16.55 0 0 1 5.47-.71 11.8 11.8 0 0 1 5.57 1.65 30.85 30.85 0 0 1-9.21 4.3 24.44 24.44 0 0 1-10.06.74 13 13 0 0 1 3.42-3.59zm-27.22 7.12a2.4 2.4 0 0 0 .73 2.47 2.83 2.83 0 0 0 3.32.5 14.92 14.92 0 0 1 3-1.06l4.25-1.68a40 40 0 0 1 4.87-1.58 6.8 6.8 0 0 0-.66 3.09c0 1.14 0 2.28.12 3.43a16.66 16.66 0 0 0 2.78 8.19 21 21 0 0 0 5.7 5.62 24.78 24.78 0 0 0 7.52 3.28 31.4 31.4 0 0 0 8.46 1 181.41 181.41 0 0 0 19.92-2.78l11.15-2.68c1-.23 2.22-.45 3.53-.64a5.35 5.35 0 0 0 3.31-1.74c1-1.09 1.11-2 .18-2.74a4 4 0 0 0-2.93-1q-2 .69-4.38 1.23c-1.56.36-3.09.76-4.59 1.19a91.53 91.53 0 0 1-20.13 2.75 63.67 63.67 0 0 1-7.9-.57 25.39 25.39 0 0 1-8-2.41 18.23 18.23 0 0 1-6.16-4.86 11.77 11.77 0 0 1-2.44-7.69l.82.15a26.94 26.94 0 0 0 9.12.9 30 30 0 0 0 8.78-1.93c.76-.28 1.95-.74 3.56-1.38a24.94 24.94 0 0 0 4.46-2.28 9.93 9.93 0 0 0 3.12-3.06A3.3 3.3 0 0 0 297 731a8.35 8.35 0 0 0-5.33-4.16 27.43 27.43 0 0 0-6.72-1.22 31.8 31.8 0 0 0-11.26 2.12 21.39 21.39 0 0 0-9.05 6.36 69.73 69.73 0 0 0-8.87 2.44q-4.44 1.54-8.5 2.73a2 2 0 0 0-1.64 1.59zm-114.44-13.77c3.36-1.66 6.8-3.18 10.32-4.53l-2.35 2.39c-1.72 1.68-3.78 3.58-6.15 5.71s-4.86 4.21-7.43 6.23a62.91 62.91 0 0 1-8 5.37 25.27 25.27 0 0 1-7.69 3 7.62 7.62 0 0 1 1.83-3.61 33.34 33.34 0 0 1 3.27-3.36q1.78-1.59 3.64-3c1.23-.91 2.25-1.65 3.06-2.21a56.57 56.57 0 0 1 9.5-5.99zM271.6 648.9a4.3 4.3 0 0 0-.28-2.61 3.89 3.89 0 0 0-1.7-1.8 3.29 3.29 0 0 0-2.76-.07 20.06 20.06 0 0 0-6.8 5.17q-3.35 3.66-6 6.38-6.48 6.3-12.81 12.94t-12.42 13.21q-5.53 5.83-11.14 11.42t-11.35 11.39a74.84 74.84 0 0 0-15.13 1.1q-8.48.81-16.64 2.31T158.16 712q8.85-9.91 16.94-18.69a153.63 153.63 0 0 0 14.84-18.86q2.28-3.21 5.05-7.83a44.6 44.6 0 0 0 4.27-9.47 19.63 19.63 0 0 0 .74-9.36 11.1 11.1 0 0 0-5.36-7.48 3.41 3.41 0 0 0-2.67-.59 4.4 4.4 0 0 0-2.24 1.19 3.6 3.6 0 0 0-1 2.27 3.43 3.43 0 0 0 .91 2.62c1.06 1.19 1.92 2.13 2.58 2.81s.88 2 .67 4A12.24 12.24 0 0 1 192 657c-.54 1.39-1.08 2.82-1.63 4.29a91.69 91.69 0 0 1-11 17.63q-6.49 8.22-13.07 16.2-4.32 5-8.39 9.78t-8.56 9.55l-5.93 2.12q-5 1.66-10.41 3.88t-10.6 4.9a65 65 0 0 0-9.77 6.23 38.37 38.37 0 0 0-7.73 7.88 14.46 14.46 0 0 0-2.08 4.43 10.63 10.63 0 0 0-.35 4.3 4.82 4.82 0 0 0 1.87 3.22 7.46 7.46 0 0 0 4.8 1.2 21 21 0 0 0 8.79-3.21q4-2.6 7.48-5.36 7-5.58 13.34-11.78t12.45-12.78q8.12-2.37 16.44-4.17a155.33 155.33 0 0 1 16.59-2.64c2.61-.24 5.2-.45 7.8-.62s5.25-.36 8-.57q-5.27 5.44-10.26 11.26t-9.55 12a66.57 66.57 0 0 0-5.45 8.29 13.43 13.43 0 0 0-1.64 9.63 9.07 9.07 0 0 0 4 5.63 13.59 13.59 0 0 0 6.73 2.29 30 30 0 0 0 12.76-1.53c4.46-1.46 8.66-2.84 12.59-4.11q9.74-3.15 19.68-5.61t19.9-5.57a2.15 2.15 0 0 0 1.61-1.84 2.23 2.23 0 0 0-.66-2.25 1.83 1.83 0 0 0-2-.68c-.76.21-1.5.4-2.24.55l-11.06 3.33-22.42 6q-5.87 1.71-11.35 3.17a51.29 51.29 0 0 1-11.5 1.65 45.79 45.79 0 0 1-4.68-.1 4.53 4.53 0 0 1-3.88-2.1 4.69 4.69 0 0 1 .17-3.91c.63-1.52 1.19-2.81 1.66-3.86a89.06 89.06 0 0 1 11.27-16.84q6.66-7.86 13.56-15.36a36.61 36.61 0 0 1 5.63.17q2.82.3 6.54 1a18.21 18.21 0 0 1 3.54 1.07 3.41 3.41 0 0 0 3.64-.62c1.83-1.51 2.35-2.81 1.55-3.88a8 8 0 0 0-4-2.54 29.72 29.72 0 0 0-6-1.31A31.3 31.3 0 0 0 214 705a.39.39 0 0 0-.33.05.42.42 0 0 1-.32 0q7.46-8.25 15.21-16.23t15.51-15.53q6-6.17 12.41-11.94a100.71 100.71 0 0 1 13.39-10.27 3.2 3.2 0 0 0 1.73-2.18z"/></svg>