<?xml version="1.0" standalone="no"?>
<!DOCTYPE svg PUBLIC "-//W3C//DTD SVG 20010904//EN"
 "http://www.w3.org/TR/2001/REC-SVG-20010904/DTD/svg10.dtd">
<svg version="1.0" xmlns="http://www.w3.org/2000/svg"
 width="640.000000pt" height="640.000000pt" viewBox="0 0 640.000000 640.000000"
 preserveAspectRatio="xMidYMid meet">
<metadata>
Created by potrace 1.11, written by Peter Selinger 2001-2013
</metadata>
<g transform="translate(0.000000,640.000000) scale(0.100000,-0.100000)"
fill="#000000" stroke="none">
<path d="M18 5948 c11 -18 46 -78 77 -133 32 -55 68 -118 80 -140 92 -161 140
-244 155 -270 90 -157 252 -439 272 -475 14 -25 39 -69 57 -98 17 -29 31 -54
31 -56 0 -2 18 -34 40 -70 22 -36 40 -70 40 -76 0 -5 5 -10 10 -10 6 0 10 -4
10 -9 0 -5 23 -49 51 -98 29 -48 65 -110 81 -138 16 -27 34 -61 41 -75 6 -14
16 -29 20 -35 5 -5 37 -62 73 -125 36 -63 77 -135 91 -160 95 -168 199 -349
212 -370 8 -14 26 -45 39 -70 14 -25 30 -52 36 -60 6 -8 21 -33 33 -55 27 -52
49 -90 113 -200 29 -49 62 -108 75 -130 12 -22 57 -100 99 -173 42 -74 76
-137 76 -142 0 -5 4 -10 8 -12 5 -1 22 -28 39 -58 56 -103 137 -245 143 -250
4 -4 17 -27 64 -115 6 -11 14 -22 17 -25 3 -3 8 -10 10 -16 7 -22 124 -223
129 -224 3 0 21 28 40 62 19 35 47 83 61 108 91 158 155 271 176 310 14 25 29
50 33 55 4 6 21 35 38 65 17 30 63 111 102 180 40 69 84 145 98 170 13 25 49
87 79 138 30 51 68 118 85 150 17 31 34 59 37 62 3 3 11 14 17 25 6 11 30 56
54 100 24 44 46 82 49 85 3 3 13 19 21 35 8 17 17 32 20 35 6 6 49 84 64 117
6 13 14 23 19 23 4 0 7 5 7 10 0 6 31 65 70 131 38 66 70 124 70 129 0 6 5 10
10 10 6 0 10 5 10 10 0 6 10 27 23 48 13 20 37 62 54 92 17 30 63 113 104 183
41 71 83 145 95 165 11 20 82 144 157 274 75 131 137 242 137 247 0 5 4 11 8
13 4 2 46 70 92 152 47 82 92 160 100 175 8 14 30 53 49 86 58 102 66 116 138
240 38 66 73 127 76 135 4 8 16 30 27 48 l20 32 -2241 0 -2241 0 20 -32z"/>
<path d="M5113 5968 c-14 -24 -43 -73 -64 -113 -12 -22 -25 -42 -28 -45 -3 -3
-15 -23 -26 -45 -11 -22 -23 -42 -26 -45 -3 -3 -14 -21 -24 -40 -10 -19 -39
-71 -65 -115 -118 -199 -520 -896 -520 -901 0 -2 -5 -10 -10 -17 -9 -10 -209
-352 -297 -507 -62 -109 -95 -167 -112 -195 -34 -57 -135 -231 -215 -370 -44
-77 -85 -143 -90 -147 -6 -4 -7 -8 -3 -8 5 0 0 -12 -11 -27 -19 -27 -51 -83
-98 -170 -32 -59 -57 -97 -69 -105 -5 -4 -6 -8 -1 -8 5 0 3 -7 -4 -15 -7 -8
-22 -32 -34 -53 -36 -66 -146 -256 -156 -272 -9 -13 -105 -179 -160 -275 -139
-244 -256 -445 -270 -465 -9 -14 -20 -35 -24 -48 -4 -12 -12 -22 -17 -22 -5 0
-9 -4 -9 -10 0 -5 -19 -42 -43 -82 -24 -40 -46 -80 -50 -88 -4 -8 -16 -28 -27
-45 -10 -16 -25 -41 -32 -55 -8 -14 -26 -45 -40 -70 l-26 -45 23 -45 c43 -86
88 -165 103 -182 8 -10 11 -18 7 -18 -4 0 -1 -8 7 -17 8 -10 22 -31 30 -48 13
-25 110 -202 188 -339 12 -22 33 -60 47 -85 24 -46 53 -98 167 -304 33 -59 62
-107 65 -107 3 0 20 23 36 52 17 29 42 73 57 98 15 25 33 56 41 70 47 85 73
129 94 162 12 21 23 40 23 43 0 3 11 22 24 43 12 20 24 42 25 47 2 6 7 16 13
23 6 7 18 25 27 41 17 30 183 320 214 374 10 18 58 100 105 182 47 83 90 152
94 153 4 2 8 12 8 22 0 10 5 22 11 26 6 3 17 21 25 38 8 17 26 49 40 71 13 22
30 51 37 65 6 14 14 27 17 30 5 5 11 15 57 97 13 24 53 94 89 155 35 61 64
115 64 119 0 5 4 9 9 9 5 0 11 8 14 17 6 18 23 49 129 233 86 147 248 431 270
470 11 19 27 49 37 65 10 17 100 174 201 350 101 176 189 323 194 327 6 4 7 8
3 8 -5 0 0 12 11 28 10 15 36 59 58 97 21 39 43 78 49 87 5 9 17 29 26 45 27
49 159 277 169 293 5 8 23 40 40 70 16 30 43 78 60 105 17 28 36 61 43 75 6
14 14 27 17 30 5 5 15 23 51 88 11 20 30 53 41 72 12 19 26 44 32 55 6 11 41
71 76 133 36 62 70 121 75 130 87 151 178 310 185 322 9 15 42 72 92 161 14
24 57 98 95 164 38 66 72 127 76 135 4 8 16 30 27 48 l20 32 -640 0 c-500 0
-641 -3 -647 -12z"/>
</g>
</svg>
